<?xml version="1.0" encoding="utf-8"?>
<!-- Generator: Adobe Illustrator 24.2.1, SVG Export Plug-In . SVG Version: 6.00 Build 0)  -->
<svg version="1.1" id="Layer_1" xmlns="http://www.w3.org/2000/svg" xmlns:xlink="http://www.w3.org/1999/xlink" x="0px" y="0px"
	 viewBox="0 0 617 209" style="enable-background:new 0 0 617 209;" xml:space="preserve">
<style type="text/css">
	.st0{fill-rule:evenodd;clip-rule:evenodd;fill:#6AE8C5;}
	.st1{fill:#292929;}
	.st2{fill-rule:evenodd;clip-rule:evenodd;fill:none;}
</style>
<g>
	<g>
		<path class="st0" d="M121.8,69.5c-1.7,0-3.1,1.4-3.4,3.1c-1.4,7.2-7.8,12.6-15.4,12.6s-13.9-5.4-15.4-12.6
			c-0.3-1.7-1.7-3.1-3.4-3.1H71.6c-1.7,0-3.1,1.4-3.1,3.1v12.5c0,1.7,1.4,3.1,3.1,3.4c7.2,1.4,12.6,7.8,12.6,15.4
			s-5.4,13.9-12.6,15.4c-1.7,0.3-3.1,1.7-3.1,3.4v12.5c0,1.7,1.4,3.1,3.1,3.1h12.5c1.7,0,3.1-1.4,3.4-3.1
			c1.4-7.2,7.8-12.6,15.4-12.6s13.9,5.4,15.4,12.6c0.3,1.7,1.7,3.1,3.4,3.1h12.5c1.7,0,3.1-1.4,3.1-3.1v-12.5c0-1.7-1.4-3.1-3.1-3.4
			c-7.2-1.4-12.6-7.8-12.6-15.4s5.4-13.9,12.6-15.4c1.7-0.3,3.1-1.7,3.1-3.4V72.6c0-1.7-1.4-3.1-3.1-3.1H121.8z"/>
		<path class="st1" d="M279.9,131.7h-9.7l-1-9.1c-1.3,3.3-3.4,5.8-6.2,7.6c-2.8,1.8-6.2,2.7-10.2,2.7c-5.8,0-10.3-1.7-13.4-5
			c-3.1-3.4-4.7-8.2-4.7-14.4V87h11.5v23.6c0,4.3,0.9,7.4,2.7,9.5c1.8,2,4.5,3,8.2,3c3.5,0,6.3-1.2,8.2-3.7c2-2.4,3.1-5.8,3.1-10.1
			V87h11.6L279.9,131.7L279.9,131.7z"/>
		<path class="st1" d="M323.9,118.5h12.5c-1.8,4.8-4.7,8.4-9,10.9c-4.2,2.4-9.5,3.7-16,3.7c-8.2,0-14.4-1.9-18.7-5.8
			c-4.3-3.9-6.4-9.5-6.4-16.9v-0.7c0-7.2,2.3-13,7-17.3c4.6-4.3,10.8-6.5,18.7-6.5c7.7,0,13.8,2.1,18.2,6.3
			c4.4,4.2,6.7,9.7,6.7,16.7v4.7h-39.5c0.6,3.4,2.1,6,4.5,7.8c2.4,1.7,5.8,2.6,10.1,2.6c3.1,0,5.6-0.4,7.6-1.3
			C321.5,121.6,323,120.3,323.9,118.5z M312.3,94.6c-4.1,0-7.3,0.9-9.8,2.7c-2.5,1.8-4.1,4.3-4.8,7.7h28c-0.5-3.5-1.9-6-4.1-7.8
			C319.3,95.5,316.2,94.6,312.3,94.6z"/>
		<path class="st1" d="M387.9,117.9c0,4.7-1.9,8.4-5.9,11.1c-3.9,2.7-9.4,4-16.3,4c-7.6,0-13.5-1.3-17.6-3.9
			c-4.2-2.7-6.6-6.7-7.5-12.1h12.7c0.5,2.4,1.8,4.2,3.8,5.3c2,1.1,5.1,1.6,9,1.6c3.6,0,6.2-0.4,7.8-1.3c1.7-0.9,2.6-2.3,2.6-4.2
			c0-1.5-0.8-2.6-2.5-3.3s-5.5-1.2-11.6-1.7c-7.4-0.6-12.6-1.9-15.6-3.9c-2.9-2.1-4.4-5.1-4.4-9.1c0-4.5,1.8-8.2,5.5-10.7
			c3.7-2.6,8.9-3.9,15.5-3.9c6.9,0,12.3,1.2,16.2,3.7c3.9,2.4,6.5,6.2,7.5,11.1h-12c-0.4-2.1-1.6-3.7-3.5-4.7
			c-1.9-1-4.6-1.5-8.2-1.5c-3.3,0-5.7,0.4-7.4,1.3c-1.6,0.8-2.4,2.1-2.4,3.8c0,1.6,0.8,2.7,2.5,3.3c1.7,0.7,5.5,1.2,11.3,1.7
			c7.8,0.7,13.2,2,16.1,4C386.4,110.7,387.9,113.7,387.9,117.9z"/>
		<path class="st1" d="M420.4,121.4h4.7v10.3h-7.6c-6.8,0-11.5-1.3-14-4c-2.5-2.7-3.7-7.8-3.7-15.5V97h-10.3v-9.4c1.6,0,2.8,0,3.6,0
			c0.8-0.1,1.6-0.1,2.3-0.2c1.8-0.1,3.1-0.4,3.7-1.2c0.7-0.8,1.2-2.3,1.4-4.4c0.2-0.9,0.3-1.9,0.3-3.3c0.1-1.3,0.1-2.6,0.1-3.5h9.7
			v12h14.7V97h-14.7v13.3c0,4.9,0.6,7.9,1.7,9.3C413.2,120.8,416,121.4,420.4,121.4z"/>
		<path class="st1" d="M461.2,114.6h-1.3l-17.2-21.4v38.5h-10.9V76.3h10.6l18.5,23.5l18.9-23.5h10.2v55.3H479V92.9L461.2,114.6z"/>
		<path class="st1" d="M534.5,118.5h12.5c-1.8,4.8-4.7,8.4-9,10.9c-4.2,2.4-9.5,3.7-16,3.7c-8.2,0-14.4-1.9-18.7-5.8
			c-4.3-3.9-6.4-9.5-6.4-16.9v-0.7c0-7.2,2.3-13,7-17.3c4.6-4.3,10.8-6.5,18.7-6.5c7.7,0,13.8,2.1,18.2,6.3
			c4.4,4.2,6.7,9.7,6.7,16.7v4.7H508c0.6,3.4,2.1,6,4.5,7.8c2.4,1.7,5.8,2.6,10.1,2.6c3.1,0,5.6-0.4,7.6-1.3
			C532.2,121.6,533.5,120.3,534.5,118.5z M522.8,94.6c-4.1,0-7.3,0.9-9.8,2.7c-2.5,1.8-4.1,4.3-4.8,7.7h28c-0.5-3.5-1.9-6-4.1-7.8
			C529.9,95.5,526.8,94.6,522.8,94.6z"/>
		<path class="st1" d="M227.1,104.7c0-1.3-1.1-2.3-2.3-2.3h-9.3h-16.8v9.5h16.9c-0.4,3.5-1.9,6.3-4.5,8.3c-2.7,1.9-6.3,2.9-11,2.9
			c-5.4,0-9.4-1.4-12.1-4.2c-2.6-2.8-3.9-7.2-3.8-13v-2.8c0-5.9,1.3-10.4,4.1-13.4c2.7-2.9,6.8-4.4,12.3-4.4c4.2,0,7.4,0.8,9.7,2.6
			c2.3,1.7,3.7,4.3,4.2,7.7h12.4c-0.7-6.6-3.3-11.6-7.8-15.1c-4.5-3.5-10.7-5.3-18.5-5.3c-8.7,0-15.6,2.4-20.6,7.3
			c-5,4.8-7.5,11.6-7.5,20.3v3.3c0,8.8,2.1,15.5,6.3,20c4.3,4.5,10.5,6.8,18.6,6.8c5.6,0,10.1-1.3,13.5-3.9
			c3.5-2.7,5.6-6.4,6.5-11.3l0.8,14h9v-17.6V104.7z"/>
	</g>
	<rect x="0.5" y="0.5" class="st2" width="617" height="209"/>
</g>
</svg>
